<svg version="1.1" id="Layer_1" xmlns="http://www.w3.org/2000/svg" xmlns:xlink="http://www.w3.org/1999/xlink" x="0px" y="0px"
	 width="100%" viewBox="0 0 1024 1024" enable-background="new 0 0 1024 1024" xml:space="preserve">
<path fill="#ffffff" opacity="1.000000" stroke="none" 
	d="
M513.925171,405.776611 
	C538.606812,397.368011 562.651611,388.255005 588.527405,380.988983 
	C585.799011,391.063263 582.089111,399.344208 578.415955,407.640961 
	C566.714844,434.070831 547.794312,452.357239 519.626831,460.660797 
	C509.430267,463.666656 499.527771,467.675385 489.506805,471.270386 
	C467.479858,479.172577 450.053253,492.869568 436.648224,512.110168 
	C420.919312,534.686279 402.449310,554.698303 379.273804,569.956848 
	C370.627899,575.649231 361.599609,580.633240 351.889893,584.296570 
	C350.721039,584.737488 349.556305,585.751831 347.717682,584.470459 
	C350.240387,580.471008 352.757965,576.459839 355.294830,572.460999 
	C376.994385,538.255981 390.142639,500.921143 396.875092,461.070404 
	C400.219971,441.271332 401.740662,421.247498 405.436584,401.490234 
	C412.362396,364.466797 433.153564,338.913605 467.371429,323.747375 
	C506.235291,306.521881 546.526855,293.183289 586.747498,279.660339 
	C618.117249,269.113251 649.208435,257.720184 680.974060,248.367889 
	C686.329041,246.791290 691.699585,245.145447 697.606140,245.027390 
	C697.137146,248.769653 694.067078,250.147552 692.190796,252.288193 
	C677.804016,268.702179 662.603943,284.352600 647.469177,300.079865 
	C622.940369,325.568787 592.931580,341.127075 559.533386,351.215912 
	C538.508423,357.567047 517.520874,364.105469 497.776978,373.976593 
	C484.432098,380.648438 471.673462,388.207520 462.105011,399.958679 
	C455.417267,408.172058 450.363556,417.253113 450.203430,429.755737 
	C471.589569,421.052002 492.489197,413.243988 513.925171,405.776611 
z"/>
<path fill="#ffffff" opacity="1.000000" stroke="none" 
	d="
M689.700317,739.688354 
	C689.665344,714.248901 689.745667,689.277771 689.566589,664.308533 
	C689.535828,660.016052 690.681824,658.353882 695.170715,658.579468 
	C708.943909,659.271545 722.785706,657.552185 736.526978,659.645447 
	C744.818298,660.908447 751.369873,664.610779 754.116821,673.064514 
	C756.959167,681.812073 755.136902,689.448608 748.170044,695.681885 
	C747.695312,696.106567 747.323669,696.646606 746.872681,697.169495 
	C747.241699,697.707764 747.420227,698.274719 747.791870,698.465698 
	C757.869202,703.642090 760.614746,715.341064 757.862488,725.163940 
	C755.077087,735.104736 746.421997,741.485352 735.171326,742.384705 
	C721.702942,743.461426 708.220642,742.720398 694.745972,742.868530 
	C692.700623,742.890991 690.174011,743.314453 689.700317,739.688354 
M711.044189,726.629089 
	C717.682129,726.630432 724.325256,726.794189 730.956360,726.581848 
	C736.300293,726.410828 740.147888,722.596069 740.591309,717.601807 
	C741.002625,712.970581 737.784668,708.541870 732.767944,707.521118 
	C724.769714,705.893799 716.724304,707.163391 708.491699,707.045349 
	C708.374084,709.060425 708.224670,710.526978 708.215271,711.994385 
	C708.190857,715.810791 708.217651,719.627625 708.245728,723.444153 
	C708.256104,724.851746 708.593323,726.091248 711.044189,726.629089 
M735.218384,688.738403 
	C739.306946,682.970276 738.210144,677.419922 732.185974,675.466064 
	C725.071106,673.158447 717.637939,674.485535 710.354492,674.605469 
	C707.531372,674.651978 708.027466,677.660461 708.312561,679.420532 
	C708.965210,683.448364 705.840515,690.327087 710.262695,691.014771 
	C718.158447,692.242615 726.843872,693.748901 735.218384,688.738403 
z"/>
<path fill="#FFFFFF" opacity="1.000000" stroke="none" 
	d="
M356.287476,669.032593 
	C356.292480,683.358032 356.232513,697.189941 356.323547,711.020874 
	C356.394226,721.762817 362.801575,728.250122 373.374817,728.536743 
	C384.030151,728.825500 391.567780,721.698792 391.631989,711.021484 
	C391.726196,695.357422 391.771606,679.691162 391.591736,664.028687 
	C391.544464,659.913879 392.891602,658.579529 397.024170,658.574097 
	C410.340027,658.556519 410.339691,658.409729 410.341125,671.527649 
	C410.342529,684.859192 410.371460,698.190857 410.339447,711.522339 
	C410.292725,730.969788 397.265228,744.092590 377.763611,744.366455 
	C371.943207,744.448242 366.150055,744.570435 360.426056,742.953186 
	C346.960693,739.148438 337.904297,728.048096 337.714722,714.067993 
	C337.486481,697.239929 337.733215,680.405945 337.594330,663.575928 
	C337.564514,659.968262 338.630127,658.219177 342.414551,658.633911 
	C343.731842,658.778259 345.078522,658.640808 346.411438,658.658203 
	C357.504242,658.802673 356.148590,657.355896 356.287476,669.032593 
z"/>
<path fill="#FFFFFF" opacity="1.000000" stroke="none" 
	d="
M821.764893,678.385742 
	C815.781616,671.259216 806.093079,669.168030 798.044189,672.970825 
	C794.985474,674.415955 792.874390,676.683533 792.478760,680.120239 
	C792.060913,683.750183 794.274963,686.067139 797.031738,687.841553 
	C802.948120,691.649658 810.012207,691.688965 816.516663,693.577332 
	C820.020142,694.594421 823.568848,695.472168 827.029480,696.617188 
	C835.770203,699.509094 841.082336,705.642273 842.111694,714.697205 
	C843.140320,723.746094 840.695557,731.870178 833.096252,737.759766 
	C821.178589,746.996155 794.370972,746.863770 782.505310,737.509583 
	C776.104858,732.463867 772.983398,726.499512 772.196350,717.344971 
	C777.152527,716.062866 782.242554,716.760315 787.280273,716.883118 
	C788.981323,716.924561 789.057373,718.542114 789.605408,719.732300 
	C794.277893,729.880615 811.628296,733.626221 820.187317,726.367554 
	C825.525574,721.840393 824.713989,714.537292 818.397339,711.049500 
	C814.250854,708.760132 809.563599,708.247009 805.005920,707.376831 
	C799.125549,706.254211 793.286011,705.028992 787.790588,702.534790 
	C779.018005,698.553223 775.356995,691.030334 774.946838,682.129517 
	C774.567017,673.885681 777.940491,666.897095 785.240479,662.274048 
	C797.257568,654.663818 817.790833,654.974854 829.432617,663.036194 
	C835.371704,667.148743 838.865295,672.765137 839.327576,680.076599 
	C839.407837,681.345520 839.849548,683.337952 838.301941,683.562744 
	C835.037781,684.036804 831.649597,683.626404 828.372192,684.046570 
	C824.099487,684.594299 822.917847,681.887451 821.764893,678.385742 
z"/>
<path fill="#FFFFFF" opacity="1.000000" stroke="none" 
	d="
M639.862610,724.386230 
	C633.055481,724.383728 626.723022,724.518555 620.401001,724.319397 
	C617.253418,724.220276 615.304199,725.189514 614.557190,728.338806 
	C614.290344,729.463501 613.784546,730.532715 613.373413,731.621887 
	C608.754150,743.861023 605.573120,745.421631 592.263062,741.960754 
	C591.260559,740.427246 592.299561,739.038147 592.782349,737.734314 
	C602.079651,712.626343 611.474304,687.554382 620.741638,662.435425 
	C621.766541,659.657410 623.299927,658.675171 626.240906,658.592773 
	C643.051941,658.121887 643.088867,658.040100 648.945923,673.757446 
	C656.900085,695.102478 664.789429,716.471680 672.698669,737.833435 
	C673.155884,739.068298 673.542847,740.329102 674.202209,742.291077 
	C668.189514,743.340271 662.468567,743.024719 656.750916,742.540588 
	C655.164551,742.406372 654.701233,741.017273 654.242615,739.749634 
	C653.337830,737.248108 652.413208,734.753113 651.554504,732.235718 
	C648.879883,724.395020 648.890320,724.391479 639.862610,724.386230 
M638.327576,695.999207 
	C636.425598,690.845764 634.523560,685.692322 632.235168,679.492126 
	C628.480225,689.818787 625.178345,698.899353 621.727905,708.388428 
	C629.028809,708.388428 635.411011,708.388428 642.082703,708.388428 
	C641.817505,703.965454 639.762451,700.473816 638.327576,695.999207 
z"/>
<path fill="#FFFFFF" opacity="1.000000" stroke="none" 
	d="
M444.239685,684.701172 
	C438.333466,676.279419 432.632202,668.154846 426.129028,658.887512 
	C434.240936,658.887512 441.104034,658.706787 447.947021,658.998291 
	C449.984711,659.085083 450.830048,661.582581 451.972290,663.181580 
	C456.582581,669.635254 461.143433,676.124329 465.806335,682.718933 
	C469.657867,680.446106 470.943054,676.842468 473.150116,674.030151 
	C474.380096,672.462891 475.394897,670.727478 476.520630,669.077454 
	C484.072052,658.008667 488.874329,656.225525 502.658936,659.372131 
	C503.445374,660.941650 502.154175,661.810608 501.447937,662.857666 
	C494.283417,673.479919 487.269989,684.210083 479.843414,694.646179 
	C477.442505,698.020020 477.762878,700.201843 480.102356,703.364685 
	C488.613525,714.871521 496.810608,726.610596 505.125366,738.262634 
	C505.889648,739.333740 506.880371,740.296631 506.794586,742.683105 
	C500.181030,743.085754 493.478241,743.252563 486.790649,742.458008 
	C484.888611,742.232056 484.148651,740.061951 483.126221,738.571533 
	C477.680176,730.632202 472.260193,722.674988 466.837921,714.733765 
	C464.112671,715.450378 463.328979,717.647278 462.153442,719.316406 
	C457.457581,725.984253 452.815765,732.693604 448.324585,739.500183 
	C446.682129,741.989380 444.751862,743.207275 441.738037,742.961487 
	C436.681946,742.549316 431.536133,743.543091 425.442078,742.278198 
	C429.649597,736.212097 433.366882,730.822815 437.115479,725.455444 
	C442.261505,718.087280 447.324707,710.657349 452.647369,703.418640 
	C454.565826,700.809570 454.542694,698.908630 452.534546,696.394348 
	C449.631958,692.760132 447.122040,688.812317 444.239685,684.701172 
z"/>
<path fill="#FFFFFF" opacity="1.000000" stroke="none" 
	d="
M252.224792,661.205444 
	C252.530304,674.359070 252.530304,674.359863 239.865768,674.365601 
	C232.042419,674.369141 224.216919,674.477783 216.396683,674.322693 
	C212.881363,674.252991 211.355255,675.294128 211.274918,679.118774 
	C210.985718,692.888428 210.862839,692.883667 224.769531,692.888184 
	C231.094788,692.890259 237.421478,692.985901 243.744690,692.875977 
	C246.868912,692.821777 248.280334,693.944458 248.260574,697.218567 
	C248.179276,710.693604 249.307541,708.114990 237.640701,708.317383 
	C230.651718,708.438599 223.652252,708.521545 216.670303,708.268494 
	C212.457626,708.115784 211.160400,709.747742 211.279785,713.822266 
	C211.518555,721.971375 211.220245,730.135315 211.397324,738.287659 
	C211.473801,741.808472 210.046005,742.981995 206.701202,742.947083 
	C190.616226,742.779114 193.830917,744.395813 193.706573,730.649475 
	C193.507858,708.679321 193.784241,686.704529 193.549713,664.735046 
	C193.498260,659.916321 194.927811,658.459290 199.740967,658.544983 
	C215.382812,658.823608 231.032822,658.619385 246.679016,658.712585 
	C248.630493,658.724182 251.204697,657.738892 252.224792,661.205444 
z"/>
<path fill="#FFFFFF" opacity="1.000000" stroke="none" 
	d="
M545.316223,726.685791 
	C554.776062,726.688843 563.775269,726.796204 572.769775,726.637024 
	C576.264038,726.575134 577.460754,727.911499 577.384338,731.330444 
	C577.089355,744.518677 579.156677,742.774475 566.114380,742.871704 
	C553.452087,742.966064 540.787415,742.801208 528.126343,742.957458 
	C524.117615,743.006897 522.565063,741.726807 522.591980,737.504150 
	C522.747437,713.012329 522.739258,688.518494 522.584900,664.026672 
	C522.559143,659.934692 523.799561,658.558350 527.966797,658.569397 
	C540.340027,658.602295 540.337769,658.440613 540.337219,671.032410 
	C540.336426,687.860779 540.394104,704.689514 540.296326,721.517334 
	C540.276978,724.848999 540.794067,727.193665 545.316223,726.685791 
z"/>
<path fill="#FFFFFF" opacity="1.000000" stroke="none" 
	d="
M288.339935,677.000977 
	C288.343079,691.490112 288.342560,705.479553 288.349945,719.468994 
	C288.353760,726.670410 288.360107,726.673584 295.799011,726.678040 
	C303.792969,726.682800 311.789825,726.807129 319.779633,726.625488 
	C323.475067,726.541504 325.273163,727.526123 325.212616,731.626709 
	C325.027924,744.135620 326.884918,742.827820 314.135651,742.892761 
	C301.478912,742.957214 288.820312,742.804871 276.165222,742.963440 
	C272.155426,743.013611 270.604675,741.758057 270.631714,737.527527 
	C270.788086,713.047058 270.771515,688.564514 270.626892,664.083862 
	C270.603027,660.042542 271.792328,658.570740 275.991577,658.571228 
	C288.346832,658.572571 288.346680,658.409668 288.339813,670.505798 
	C288.338684,672.504333 288.339600,674.502808 288.339935,677.000977 
z"/>
</svg>