<svg version="1.1" id="Layer_1" xmlns="http://www.w3.org/2000/svg" xmlns:xlink="http://www.w3.org/1999/xlink" x="0px" y="0px"
	 width="100%" viewBox="0 0 1024 1024" enable-background="new 0 0 1024 1024" xml:space="preserve">
<path fill="#000000" opacity="1.000000" stroke="none" 
	d="
M503.599304,471.517456 
	C537.842285,459.564880 572.264160,449.488739 605.908447,438.397186 
	C607.335876,439.627106 607.118103,440.463562 606.839478,441.237122 
	C600.671570,458.359497 593.247559,474.935577 583.911926,490.548096 
	C570.697083,512.648071 551.298096,527.027466 526.950134,535.134216 
	C509.110016,541.074158 491.279449,547.085083 474.461823,555.690796 
	C450.955780,567.719055 432.620636,585.348206 416.993164,606.463989 
	C397.101898,633.340942 373.906891,656.831909 343.692780,672.413574 
	C338.077271,675.309509 332.796844,678.849365 327.290466,681.966064 
	C325.490692,682.984802 323.821655,684.562317 321.510010,684.300415 
	C320.482697,682.815613 321.728271,682.019348 322.336700,681.181091 
	C341.125092,655.295044 351.921997,625.851135 360.641693,595.463318 
	C366.005890,576.769104 370.630737,557.898926 373.344818,538.636780 
	C375.149994,525.825256 376.206390,512.909302 377.661377,500.047302 
	C380.848999,471.868866 385.567993,444.088135 399.095032,418.628357 
	C412.965088,392.522919 435.462250,376.150330 461.388275,363.816589 
	C494.845490,347.900024 530.168701,336.864624 565.095459,324.837158 
	C612.443359,308.532257 660.133545,293.220459 707.111938,275.843628 
	C709.589661,274.927124 712.050537,273.965363 714.498108,273.032776 
	C716.014893,274.742523 714.705627,276.001404 714.017090,277.157654 
	C690.820557,316.112183 662.225647,350.218903 624.638672,376.170593 
	C609.398865,386.692841 591.962463,392.547180 574.885498,399.146790 
	C550.209290,408.683197 524.657959,415.922363 500.600922,427.059753 
	C480.301758,436.457428 462.608887,449.153107 450.743652,468.736145 
	C446.578430,475.610657 443.555695,483.008911 440.716125,490.487976 
	C440.135437,492.017517 439.631622,493.687866 441.646576,496.063751 
	C461.543274,486.921356 481.866669,477.914490 503.599304,471.517456 
z"/>
</svg>